<svg xmlns="http://www.w3.org/2000/svg" xmlns:xlink="http://www.w3.org/1999/xlink" xmlns:lucid="lucid" width="1213" height="1756"><g transform="translate(-1015.9394867780964 -834.1625456922256)" lucid:page-tab-id="0_0"><path d="M1016.94 841.16a6 6 0 0 1 6-6h1199a6 6 0 0 1 6 6v1742a6 6 0 0 1-6 6h-1199a6 6 0 0 1-6-6z" stroke="#3a414a" stroke-width="2" fill="#fff"/><path d="M1096.94 1489.16a6 6 0 0 1 6-6h160a6 6 0 0 1 6 6v192a6 6 0 0 1-6 6h-160a6 6 0 0 1-6-6z" stroke="#3a414a" stroke-width="2" fill="#fff"/><path d="M1096.94 1558.32h172m-172 64.38h172" stroke="#3a414a" stroke-width="2" fill="none"/><use xlink:href="#a" transform="matrix(1,0,0,1,1104.9394867780964,1491.1625456922256) translate(28.645616319444443 21.95095486111111)"/><use xlink:href="#b" transform="matrix(1,0,0,1,1104.9394867780964,1491.1625456922256) translate(40.874348958333336 54.21657986111111)"/><use xlink:href="#c" transform="matrix(1,0,0,1,1108.9394867780964,1566.316191525559) translate(0 32.583767361111114)"/><path d="M1515.44 2311.16a6 6 0 0 1 6-6h212a6 6 0 0 1 6 6v192a6 6 0 0 1-6 6h-212a6 6 0 0 1-6-6z" stroke="#3a414a" stroke-width="2" fill="#fff"/><path d="M1515.44 2380.32h224m-224 64.38h224" stroke="#3a414a" stroke-width="2" fill="none"/><use xlink:href="#d" transform="matrix(1,0,0,1,1523.4394867780964,2313.1625456922256) translate(43.35546874999999 21.95095486111111)"/><use xlink:href="#e" transform="matrix(1,0,0,1,1523.4394867780964,2313.1625456922256) translate(42.178168402777786 54.21657986111111)"/><use xlink:href="#f" transform="matrix(1,0,0,1,1527.4394867780964,2388.316191525559) translate(0 32.583767361111114)"/><path d="M1546.44 1457.16a6 6 0 0 1 6-6h150a6 6 0 0 1 6 6v256a6 6 0 0 1-6 6h-150a6 6 0 0 1-6-6z" stroke="#3a414a" stroke-width="2" fill="#fff"/><path d="M1546.44 1494.05h162m-162 161.18h162" stroke="#3a414a" stroke-width="2" fill="none"/><use xlink:href="#g" transform="matrix(1,0,0,1,1554.4394867780964,1459.1625456922256) translate(15.382812499999993 21.58376736111111)"/><use xlink:href="#h" transform="matrix(1,0,0,1,1558.4394867780964,1502.050566525559) translate(0 32.685329861111114)"/><use xlink:href="#i" transform="matrix(1,0,0,1,1558.4394867780964,1502.050566525559) translate(0 64.95095486111111)"/><use xlink:href="#j" transform="matrix(1,0,0,1,1558.4394867780964,1502.050566525559) translate(0 97.21657986111111)"/><use xlink:href="#k" transform="matrix(1,0,0,1,1558.4394867780964,1502.050566525559) translate(0 129.48220486111111)"/><path d="M1985.94 1473.16a6 6 0 0 1 6-6h150a6 6 0 0 1 6 6v224a6 6 0 0 1-6 6h-150a6 6 0 0 1-6-6z" stroke="#3a414a" stroke-width="2" fill="#fff"/><path d="M1985.94 1542.32h162m-162 96.65h162" stroke="#3a414a" stroke-width="2" fill="none"/><use xlink:href="#l" transform="matrix(1,0,0,1,1993.9394867780964,1475.1625456922256) translate(17.970703124999986 21.95095486111111)"/><use xlink:href="#m" transform="matrix(1,0,0,1,1993.9394867780964,1475.1625456922256) translate(26.830295138888893 54.21657986111111)"/><use xlink:href="#n" transform="matrix(1,0,0,1,1997.9394867780964,1550.316191525559) translate(0 32.450954861111114)"/><use xlink:href="#o" transform="matrix(1,0,0,1,1997.9394867780964,1550.316191525559) translate(0 64.71657986111111)"/><path d="M1183.9 2401.12l.08.83.18.76.3.74.42.67.5.6.6.53.68.4.73.3.75.2.83.06h252.83v1.94h-252.9l-1.05-.1-1.07-.24-1-.42-.94-.57-.83-.7-.7-.84-.58-.93-.42-1-.25-1.08-.1-1.05v-642.58h1.96zm329.54 5.07v1.94h-63.96v-1.95zm-329.53-673.4h-1.94v-43.64h1.95z" stroke="#5e5e5e" stroke-width=".05" fill="#5e5e5e"/><path d="M1183.9 1689.2h-1.94v-1.04h1.95z" fill="#5e5e5e"/><path stroke="#5e5e5e" stroke-width=".05" fill="#5e5e5e"/><path d="M1514.44 2408.14h-1.03v-1.95h1.04z" fill="#5e5e5e"/><path stroke="#5e5e5e" stroke-width=".05" fill="#5e5e5e"/><use xlink:href="#p" transform="matrix(1,0,0,1,1166.918653444763,1732.8069636225212) translate(0 20.666666666666668)"/><use xlink:href="#q" transform="matrix(1,0,0,1,1441.814096834656,2396.407337358892) translate(0 17.22222222222222)"/><path d="M1313.9 1586.14h-42.96v-1.95h42.95zm155.76 0h-148.1v-1.95h148.1zm74.78 0h-43.12v-1.95h43.12z" stroke="#5e5e5e" stroke-width=".05" fill="#5e5e5e"/><path d="M1270.96 1586.14h-1.02v-1.95h1.02z" fill="#5e5e5e"/><path stroke="#5e5e5e" stroke-width=".05" fill="#5e5e5e"/><path d="M1545.44 1586.14h-1.03v-1.95h1.04z" fill="#5e5e5e"/><path stroke="#5e5e5e" stroke-width=".05" fill="#5e5e5e"/><use xlink:href="#q" transform="matrix(1,0,0,1,1313.8873190047339,1574.4073373588924) translate(0 17.22222222222222)"/><use xlink:href="#r" transform="matrix(1,0,0,1,1469.6644826660163,1572.2562956922256) translate(0 20.666666666666668)"/><path d="M1016.94 841.16a6 6 0 0 1 6-6h1199a6 6 0 0 1 6 6v1742a6 6 0 0 1-6 6h-1199a6 6 0 0 1-6-6z" stroke="#3a414a" stroke-width="2" fill="#fff"/><path d="M1096.94 1489.16a6 6 0 0 1 6-6h160a6 6 0 0 1 6 6v192a6 6 0 0 1-6 6h-160a6 6 0 0 1-6-6z" stroke="#3a414a" stroke-width="2" fill="#fff"/><path d="M1096.94 1558.32h172m-172 64.38h172" stroke="#3a414a" stroke-width="2" fill="none"/><use xlink:href="#a" transform="matrix(1,0,0,1,1104.9394867780964,1491.1625456922256) translate(28.645616319444443 21.95095486111111)"/><use xlink:href="#b" transform="matrix(1,0,0,1,1104.9394867780964,1491.1625456922256) translate(40.874348958333336 54.21657986111111)"/><use xlink:href="#c" transform="matrix(1,0,0,1,1108.9394867780964,1566.316191525559) translate(0 32.583767361111114)"/><path d="M1515.44 2311.16a6 6 0 0 1 6-6h212a6 6 0 0 1 6 6v192a6 6 0 0 1-6 6h-212a6 6 0 0 1-6-6z" stroke="#3a414a" stroke-width="2" fill="#fff"/><path d="M1515.44 2380.32h224m-224 64.38h224" stroke="#3a414a" stroke-width="2" fill="none"/><use xlink:href="#d" transform="matrix(1,0,0,1,1523.4394867780964,2313.1625456922256) translate(43.35546874999999 21.95095486111111)"/><use xlink:href="#e" transform="matrix(1,0,0,1,1523.4394867780964,2313.1625456922256) translate(42.178168402777786 54.21657986111111)"/><use xlink:href="#f" transform="matrix(1,0,0,1,1527.4394867780964,2388.316191525559) translate(0 32.583767361111114)"/><path d="M1546.44 1457.16a6 6 0 0 1 6-6h150a6 6 0 0 1 6 6v256a6 6 0 0 1-6 6h-150a6 6 0 0 1-6-6z" stroke="#3a414a" stroke-width="2" fill="#fff"/><path d="M1546.44 1494.05h162m-162 161.18h162" stroke="#3a414a" stroke-width="2" fill="none"/><use xlink:href="#g" transform="matrix(1,0,0,1,1554.4394867780964,1459.1625456922256) translate(15.382812499999993 21.58376736111111)"/><use xlink:href="#h" transform="matrix(1,0,0,1,1558.4394867780964,1502.050566525559) translate(0 32.685329861111114)"/><use xlink:href="#i" transform="matrix(1,0,0,1,1558.4394867780964,1502.050566525559) translate(0 64.95095486111111)"/><use xlink:href="#j" transform="matrix(1,0,0,1,1558.4394867780964,1502.050566525559) translate(0 97.21657986111111)"/><use xlink:href="#k" transform="matrix(1,0,0,1,1558.4394867780964,1502.050566525559) translate(0 129.48220486111111)"/><path d="M1985.94 1473.16a6 6 0 0 1 6-6h150a6 6 0 0 1 6 6v224a6 6 0 0 1-6 6h-150a6 6 0 0 1-6-6z" stroke="#3a414a" stroke-width="2" fill="#fff"/><path d="M1985.94 1542.32h162m-162 96.65h162" stroke="#3a414a" stroke-width="2" fill="none"/><use xlink:href="#l" transform="matrix(1,0,0,1,1993.9394867780964,1475.1625456922256) translate(17.970703124999986 21.95095486111111)"/><use xlink:href="#m" transform="matrix(1,0,0,1,1993.9394867780964,1475.1625456922256) translate(26.830295138888893 54.21657986111111)"/><use xlink:href="#n" transform="matrix(1,0,0,1,1997.9394867780964,1550.316191525559) translate(0 32.450954861111114)"/><use xlink:href="#o" transform="matrix(1,0,0,1,1997.9394867780964,1550.316191525559) translate(0 64.71657986111111)"/><path d="M1183.9 2401.12l.08.83.18.76.3.74.42.67.5.6.6.53.68.4.73.3.75.2.83.06h252.83v1.94h-252.9l-1.05-.1-1.07-.24-1-.42-.94-.57-.83-.7-.7-.84-.58-.93-.42-1-.25-1.08-.1-1.05v-642.58h1.96zm329.54 5.07v1.94h-63.96v-1.95zm-329.53-673.4h-1.94v-43.64h1.95z" stroke="#5e5e5e" stroke-width=".05" fill="#5e5e5e"/><path d="M1183.9 1689.2h-1.94v-1.04h1.95z" fill="#5e5e5e"/><path stroke="#5e5e5e" stroke-width=".05" fill="#5e5e5e"/><path d="M1514.44 2408.14h-1.03v-1.95h1.04z" fill="#5e5e5e"/><path stroke="#5e5e5e" stroke-width=".05" fill="#5e5e5e"/><g><use xlink:href="#p" transform="matrix(1,0,0,1,1166.918653444763,1732.8069636225212) translate(0 20.666666666666668)"/></g><g><use xlink:href="#q" transform="matrix(1,0,0,1,1441.814096834656,2396.407337358892) translate(0 17.22222222222222)"/></g><path d="M1313.9 1586.14h-42.96v-1.95h42.95zm155.76 0h-148.1v-1.95h148.1zm74.78 0h-43.12v-1.95h43.12z" stroke="#5e5e5e" stroke-width=".05" fill="#5e5e5e"/><path d="M1270.96 1586.14h-1.02v-1.95h1.02z" fill="#5e5e5e"/><path stroke="#5e5e5e" stroke-width=".05" fill="#5e5e5e"/><path d="M1545.44 1586.14h-1.03v-1.95h1.04z" fill="#5e5e5e"/><path stroke="#5e5e5e" stroke-width=".05" fill="#5e5e5e"/><g><use xlink:href="#q" transform="matrix(1,0,0,1,1313.8873190047339,1574.4073373588924) translate(0 17.22222222222222)"/></g><g><use xlink:href="#r" transform="matrix(1,0,0,1,1469.6644826660163,1572.2562956922256) translate(0 20.666666666666668)"/></g><defs><path d="M783 20c-382 0-661-292-661-764 0-473 279-766 661-766 302 0 548 182 601 489h-190c-42-204-217-313-411-313-268 0-476 208-476 590 0 381 209 588 476 588 195 0 369-110 411-313h190c-52 303-296 489-601 489" id="s"/><path d="M158 0v-1118h457c242 0 397 118 397 298 0 131-85 205-218 232 129 19 261 115 261 288S916 0 686 0H158zm171-164h357c115 0 184-58 184-152 0-114-70-182-184-182H329v334zm0-485h287c134 0 215-60 215-156 0-93-82-149-216-149H329v305" id="t"/><path d="M613 24c-304 0-509-231-509-576 0-350 205-580 509-580 305 0 511 230 511 580 0 345-206 576-511 576zm0-161c226 0 329-195 329-415 0-222-103-419-329-419-223 0-326 196-326 419 0 220 103 415 326 415" id="u"/><path d="M38 321v-487h92c91-92 130-206 156-514l37-438h721v952h170v487h-179V0H218v321H38zm296-487h531v-786H486c-25 270-41 659-152 786" id="v"/><path d="M338-1118v477h534v-477h181V0H872v-475H338V0H158v-1118h180" id="w"/><path d="M338-717h293c264 0 409 149 409 355C1040-160 894 0 631 0H158v-1118h180v401zM1170 0v-1118h180V0h-180zM338-550v384h293c132 0 227-77 227-188 0-116-95-196-227-196H338" id="x"/><path d="M1053 0H872v-806h-13L329 0H158v-1118h180v809h13l532-809h170V0zM605-1275c-162 0-290-124-290-283h132c0 91 66 155 158 155s158-64 158-155h132c0 158-127 283-290 283" id="y"/><g id="a"><use transform="matrix(0.010850694444444444,0,0,0.010850694444444444,0,0)" xlink:href="#s"/><use transform="matrix(0.010850694444444444,0,0,0.010850694444444444,16.23263888888889,0)" xlink:href="#t"/><use transform="matrix(0.010850694444444444,0,0,0.010850694444444444,28.78689236111111,0)" xlink:href="#u"/><use transform="matrix(0.010850694444444444,0,0,0.010850694444444444,42.111545138888886,0)" xlink:href="#v"/><use transform="matrix(0.010850694444444444,0,0,0.010850694444444444,56.06553819444444,0)" xlink:href="#w"/><use transform="matrix(0.010850694444444444,0,0,0.010850694444444444,69.20572916666666,0)" xlink:href="#x"/><use transform="matrix(0.010850694444444444,0,0,0.010850694444444444,85.56857638888889,0)" xlink:href="#y"/></g><path d="M993-1535l88 111c-103 99-256 94-455 101-229 8-342 151-365 447h14c74-139 216-204 371-204 263 0 463 187 463 537S910 24 609 24c-303 0-505-216-505-630v-116c0-497 169-758 515-768 139-7 304 19 374-45zM610-137c197 0 317-159 317-406 0-239-120-377-321-377-195 0-319 138-319 377 0 245 122 406 323 406" id="z"/><path d="M338-717h293c264 0 409 149 409 355C1040-160 894 0 631 0H158v-1118h180v401zm0 167v384h293c132 0 227-77 227-188 0-116-95-196-227-196H338" id="A"/><path d="M628 24c-324 0-524-230-524-574 0-343 198-582 503-582 237 0 487 146 487 559v75H286c9 234 145 362 343 362 132 0 231-58 273-172l174 48C1024-91 857 24 628 24zM287-650h624c-17-190-120-322-304-322-192 0-309 151-320 322" id="B"/><path d="M158 0v-1118h180v484h112l398-484h228L630-577 1082 0H854L493-468H338V0H158" id="C"/><path d="M388 0v-957H20v-161h914v161H568V0H388" id="D"/><g id="b"><use transform="matrix(0.010850694444444444,0,0,0.010850694444444444,0,0)" xlink:href="#u"/><use transform="matrix(0.010850694444444444,0,0,0.010850694444444444,13.324652777777777,0)" xlink:href="#z"/><use transform="matrix(0.010850694444444444,0,0,0.010850694444444444,26.48654513888889,0)" xlink:href="#A"/><use transform="matrix(0.010850694444444444,0,0,0.010850694444444444,38.89973958333333,0)" xlink:href="#B"/><use transform="matrix(0.010850694444444444,0,0,0.010850694444444444,51.855468749999986,0)" xlink:href="#C"/><use transform="matrix(0.010850694444444444,0,0,0.010850694444444444,63.89973958333333,0)" xlink:href="#D"/></g><path d="M370-1490V0H180v-1490h190" id="E"/><path d="M645 0H180v-1490h484c435 0 692 280 692 742 0 466-257 748-711 748zM370-168h263c363 0 539-218 539-580 0-358-176-574-521-574H370v1154" id="F"/><g id="c"><use transform="matrix(0.010850694444444444,0,0,0.010850694444444444,0,0)" xlink:href="#E"/><use transform="matrix(0.010850694444444444,0,0,0.010850694444444444,5.967881944444445,0)" xlink:href="#F"/></g><path d="M1342-1490V0h-190v-1322H370V0H180v-1490h1162" id="G"/><path d="M158 418v-1536h174v179h20c37-59 106-193 324-193 279 0 474 222 474 576 0 356-194 580-473 580-213 0-288-135-325-197h-14v591H158zm492-555c209 0 317-186 317-421 0-232-105-413-317-413-206 0-314 166-314 413 0 249 111 421 314 421" id="H"/><path d="M852-1118v166H338V0H158v-1118h694" id="I"/><g id="d"><use transform="matrix(0.010850694444444444,0,0,0.010850694444444444,0,0)" xlink:href="#G"/><use transform="matrix(0.010850694444444444,0,0,0.010850694444444444,16.514756944444443,0)" xlink:href="#u"/><use transform="matrix(0.010850694444444444,0,0,0.010850694444444444,29.83940972222222,0)" xlink:href="#H"/><use transform="matrix(0.010850694444444444,0,0,0.010850694444444444,43.44618055555556,0)" xlink:href="#u"/><use transform="matrix(0.010850694444444444,0,0,0.010850694444444444,56.77083333333333,0)" xlink:href="#I"/><use transform="matrix(0.010850694444444444,0,0,0.010850694444444444,66.09157986111111,0)" xlink:href="#u"/><use transform="matrix(0.010850694444444444,0,0,0.010850694444444444,79.41623263888889,0)" xlink:href="#t"/><use transform="matrix(0.010850694444444444,0,0,0.010850694444444444,91.97048611111111,0)" xlink:href="#x"/><use transform="matrix(0.010850694444444444,0,0,0.010850694444444444,108.33333333333334,0)" xlink:href="#B"/></g><path d="M784 20c-382 0-662-292-662-764 0-473 280-766 662-766s660 293 660 766c0 472-278 764-660 764zm0-176c266 0 475-207 475-588 0-383-209-590-475-590-268 0-477 208-477 590 0 380 209 588 477 588" id="J"/><path d="M1053 0H872v-806h-13L329 0H158v-1118h180v809h13l532-809h170V0" id="K"/><g id="e"><use transform="matrix(0.010850694444444444,0,0,0.010850694444444444,0,0)" xlink:href="#J"/><use transform="matrix(0.010850694444444444,0,0,0.010850694444444444,16.9921875,0)" xlink:href="#H"/><use transform="matrix(0.010850694444444444,0,0,0.010850694444444444,30.598958333333332,0)" xlink:href="#K"/><use transform="matrix(0.010850694444444444,0,0,0.010850694444444444,43.73914930555556,0)" xlink:href="#B"/><use transform="matrix(0.010850694444444444,0,0,0.010850694444444444,56.69487847222222,0)" xlink:href="#w"/><use transform="matrix(0.010850694444444444,0,0,0.010850694444444444,69.83506944444444,0)" xlink:href="#D"/><use transform="matrix(0.010850694444444444,0,0,0.010850694444444444,80.53385416666667,0)" xlink:href="#K"/><use transform="matrix(0.010850694444444444,0,0,0.010850694444444444,93.67404513888889,0)" xlink:href="#H"/><use transform="matrix(0.010850694444444444,0,0,0.010850694444444444,107.28081597222221,0)" xlink:href="#x"/></g><path d="M258 0v-169h104c98 0 156-29 186-102l28-68L52-1490h208c133 299 307 679 396 983 91-283 255-686 375-983h204L720-246C660-101 587 0 359 0H258" id="L"/><g id="f"><use transform="matrix(0.010850694444444444,0,0,0.010850694444444444,0,0)" xlink:href="#L"/><use transform="matrix(0.010850694444444444,0,0,0.010850694444444444,13.0859375,0)" xlink:href="#H"/><use transform="matrix(0.010850694444444444,0,0,0.010850694444444444,26.692708333333332,0)" xlink:href="#u"/><use transform="matrix(0.010850694444444444,0,0,0.010850694444444444,40.01736111111111,0)" xlink:href="#t"/><use transform="matrix(0.010850694444444444,0,0,0.010850694444444444,52.57161458333333,0)" xlink:href="#w"/><use transform="matrix(0.010850694444444444,0,0,0.010850694444444444,65.71180555555554,0)" xlink:href="#K"/></g><path d="M52 0l541-1490h220L1361 0h-200l-149-416H398L254 0H52zm404-582h497c-103-290-145-390-251-756-108 377-145 460-246 756" id="M"/><path d="M471 26C259 26 90-98 90-318c0-256 228-303 435-329 202-27 287-16 287-108 0-139-79-219-234-219-161 0-248 86-283 164l-173-57c86-203 278-265 451-265 150 0 419 46 419 395V0H815v-152h-12C765-73 660 26 471 26zm31-159c199 0 310-134 310-271v-155c-30 35-226 55-295 64-131 17-246 59-246 186 0 116 97 176 231 176" id="N"/><path d="M20 0v-166h40c130 0 171-81 186-454l20-498h754V0H839v-952H437l-17 394C398-160 328 21 20 0" id="O"/><g id="g"><use transform="matrix(0.010850694444444444,0,0,0.010850694444444444,0,0)" xlink:href="#M"/><use transform="matrix(0.010850694444444444,0,0,0.010850694444444444,15.33203125,0)" xlink:href="#w"/><use transform="matrix(0.010850694444444444,0,0,0.010850694444444444,28.47222222222222,0)" xlink:href="#N"/><use transform="matrix(0.010850694444444444,0,0,0.010850694444444444,40.95052083333333,0)" xlink:href="#O"/><use transform="matrix(0.010850694444444444,0,0,0.010850694444444444,53.732638888888886,0)" xlink:href="#K"/><use transform="matrix(0.010850694444444444,0,0,0.010850694444444444,66.87282986111111,0)" xlink:href="#D"/><use transform="matrix(0.010850694444444444,0,0,0.010850694444444444,77.57161458333334,0)" xlink:href="#K"/><use transform="matrix(0.010850694444444444,0,0,0.010850694444444444,90.71180555555557,0)" xlink:href="#C"/><use transform="matrix(0.010850694444444444,0,0,0.010850694444444444,102.7560763888889,0)" xlink:href="#N"/></g><g id="h"><use transform="matrix(0.010850694444444444,0,0,0.010850694444444444,0,0)" xlink:href="#E"/><use transform="matrix(0.010850694444444444,0,0,0.010850694444444444,5.967881944444445,0)" xlink:href="#F"/></g><path d="M98 320v-487h122c98-87 175-264 210-695l51-628h933v1323h166v487h-183V0H280v320H98zm341-487h785v-1156H655c-33 377-54 985-216 1156" id="P"/><g id="i"><use transform="matrix(0.010850694444444444,0,0,0.010850694444444444,0,0)" xlink:href="#P"/><use transform="matrix(0.010850694444444444,0,0,0.010850694444444444,18.20746527777778,0)" xlink:href="#N"/><use transform="matrix(0.010850694444444444,0,0,0.010850694444444444,30.68576388888889,0)" xlink:href="#D"/><use transform="matrix(0.010850694444444444,0,0,0.010850694444444444,41.037326388888886,0)" xlink:href="#N"/></g><path d="M977 0H798v-419H508L254 0H47l277-449C171-500 96-614 96-764c0-208 141-354 436-354h445V0zM798-570v-391H546c-192 0-270 73-270 197 0 123 78 194 268 194h254" id="Q"/><g id="j"><use transform="matrix(0.010850694444444444,0,0,0.010850694444444444,0,0)" xlink:href="#u"/><use transform="matrix(0.010850694444444444,0,0,0.010850694444444444,13.324652777777777,0)" xlink:href="#z"/><use transform="matrix(0.010850694444444444,0,0,0.010850694444444444,26.48654513888889,0)" xlink:href="#w"/><use transform="matrix(0.010850694444444444,0,0,0.010850694444444444,39.62673611111111,0)" xlink:href="#u"/><use transform="matrix(0.010850694444444444,0,0,0.010850694444444444,52.951388888888886,0)" xlink:href="#t"/><use transform="matrix(0.010850694444444444,0,0,0.010850694444444444,65.50564236111111,0)" xlink:href="#O"/><use transform="matrix(0.010850694444444444,0,0,0.010850694444444444,78.28776041666667,0)" xlink:href="#B"/><use transform="matrix(0.010850694444444444,0,0,0.010850694444444444,91.24348958333334,0)" xlink:href="#w"/><use transform="matrix(0.010850694444444444,0,0,0.010850694444444444,104.38368055555557,0)" xlink:href="#K"/><use transform="matrix(0.010850694444444444,0,0,0.010850694444444444,117.5238715277778,0)" xlink:href="#Q"/></g><path d="M180 0v-1490h528c311 0 458 177 458 395 0 191-114 278-244 313v14c139 9 302 137 302 371 0 225-148 397-499 397H180zm190-168h350c232 0 321-102 321-231 0-149-120-277-311-277H370v508zm0-668h328c160 0 286-101 286-255 0-129-87-231-280-231H370v486" id="R"/><path d="M65 0l393-574-370-544h210c88 136 192 297 267 435 67-142 176-302 264-435h206L661-564 1053 0H844c-94-144-206-310-287-458C484-308 366-142 273 0H65" id="S"/><path d="M158-1118h180v952h414v-952h180v952h414v-952h180v952h147l-1 486h-180V0H158v-1118" id="T"/><g id="l"><use transform="matrix(0.010850694444444444,0,0,0.010850694444444444,0,0)" xlink:href="#R"/><use transform="matrix(0.010850694444444444,0,0,0.010850694444444444,14.539930555555555,0)" xlink:href="#S"/><use transform="matrix(0.010850694444444444,0,0,0.010850694444444444,26.171875,0)" xlink:href="#u"/><use transform="matrix(0.010850694444444444,0,0,0.010850694444444444,39.49652777777778,0)" xlink:href="#v"/><use transform="matrix(0.010850694444444444,0,0,0.010850694444444444,53.45052083333333,0)" xlink:href="#Q"/><use transform="matrix(0.010850694444444444,0,0,0.010850694444444444,65.76605902777779,0)" xlink:href="#T"/><use transform="matrix(0.010850694444444444,0,0,0.010850694444444444,84.14713541666669,0)" xlink:href="#B"/><use transform="matrix(0.010850694444444444,0,0,0.010850694444444444,97.10286458333334,0)" xlink:href="#B"/></g><path d="M613 24c-304 0-509-231-509-576 0-350 205-580 509-580 216 0 392 114 453 309l-173 49c-33-115-133-197-280-197-223 0-326 196-326 419 0 220 103 415 326 415 150 0 252-85 285-206l172 49C1010-95 832 24 613 24" id="U"/><g id="m"><use transform="matrix(0.010850694444444444,0,0,0.010850694444444444,0,0)" xlink:href="#U"/><use transform="matrix(0.010850694444444444,0,0,0.010850694444444444,12.6953125,0)" xlink:href="#u"/><use transform="matrix(0.010850694444444444,0,0,0.010850694444444444,26.01996527777778,0)" xlink:href="#z"/><use transform="matrix(0.010850694444444444,0,0,0.010850694444444444,39.181857638888886,0)" xlink:href="#x"/><use transform="matrix(0.010850694444444444,0,0,0.010850694444444444,55.54470486111111,0)" xlink:href="#D"/><use transform="matrix(0.010850694444444444,0,0,0.010850694444444444,66.24348958333333,0)" xlink:href="#K"/><use transform="matrix(0.010850694444444444,0,0,0.010850694444444444,79.38368055555554,0)" xlink:href="#B"/></g><path d="M98-1322v-168h1126v168H757V0H567v-1322H98" id="V"/><path d="M1046-1118V0H866v-952H339V0H158v-1118h888" id="W"/><g id="n"><use transform="matrix(0.010850694444444444,0,0,0.010850694444444444,0,0)" xlink:href="#V"/><use transform="matrix(0.010850694444444444,0,0,0.010850694444444444,13.0859375,0)" xlink:href="#K"/><use transform="matrix(0.010850694444444444,0,0,0.010850694444444444,26.22612847222222,0)" xlink:href="#W"/></g><path d="M158 0v-1118h270c115 298 279 624 361 942 79-316 244-646 356-942h274V0h-181c1-327-2-645 4-968-88 330-255 658-376 968H708C586-305 423-627 332-951c8 309 4 634 5 951H158" id="X"/><g id="o"><use transform="matrix(0.010850694444444444,0,0,0.010850694444444444,0,0)" xlink:href="#R"/><use transform="matrix(0.010850694444444444,0,0,0.010850694444444444,14.539930555555555,0)" xlink:href="#H"/><use transform="matrix(0.010850694444444444,0,0,0.010850694444444444,28.14670138888889,0)" xlink:href="#B"/><use transform="matrix(0.010850694444444444,0,0,0.010850694444444444,41.10243055555555,0)" xlink:href="#X"/><use transform="matrix(0.010850694444444444,0,0,0.010850694444444444,58.21397569444444,0)" xlink:href="#Q"/></g><path d="M646 20c-332 0-524-278-524-764 0-483 194-766 524-766s524 283 524 766c0 485-191 764-524 764zm0-166c218 0 341-220 341-598 0-380-123-601-341-601s-341 222-341 601c0 378 123 598 341 598" id="Y"/><path d="M295 13c-75 0-135-60-135-135s60-135 135-135 135 60 135 135S370 13 295 13" id="Z"/><path d="M653-1490V0H466v-1314h-10L96-1047v-204l324-239h233" id="aa"/><g id="p"><use transform="matrix(0.010416666666666668,0,0,0.010416666666666668,0,0)" xlink:href="#Y"/><use transform="matrix(0.010416666666666668,0,0,0.010416666666666668,12.91666666666667,0)" xlink:href="#Z"/><use transform="matrix(0.010416666666666668,0,0,0.010416666666666668,19.062500000000004,0)" xlink:href="#Z"/><use transform="matrix(0.010416666666666668,0,0,0.010416666666666668,23.364583333333336,0)" xlink:href="#aa"/></g><path fill="#333" d="M749-1490V0H444v-1221h-10L93-980v-279l329-231h327" id="ab"/><use transform="matrix(0.008680555555555556,0,0,0.008680555555555556,0,0)" xlink:href="#ab" id="q"/><path d="M441-652l13-317-268 171-72-126 282-146-282-146 72-128 268 171-13-317h144l-12 317 267-171 72 128-282 146 282 146-72 126-267-171 12 317H441" id="ac"/><g id="r"><use transform="matrix(0.010416666666666668,0,0,0.010416666666666668,0,0)" xlink:href="#aa"/><use transform="matrix(0.010416666666666668,0,0,0.010416666666666668,8.677083333333334,0)" xlink:href="#Z"/><use transform="matrix(0.010416666666666668,0,0,0.010416666666666668,14.822916666666668,0)" xlink:href="#Z"/><use transform="matrix(0.010416666666666668,0,0,0.010416666666666668,20.96875,0)" xlink:href="#ac"/></g></defs></g></svg>