<svg xmlns="http://www.w3.org/2000/svg" xmlns:xlink="http://www.w3.org/1999/xlink" xmlns:lucid="lucid" width="2368.67" height="2592.65"><g transform="translate(236.55806506024692 620.6617562784472)" lucid:page-tab-id="0_0"><path d="M-235.56-613.66a6 6 0 0 1 6-6h2354.68a6 6 0 0 1 6 6v2578.64a6 6 0 0 1-6 6H-229.56a6 6 0 0 1-6-6z" stroke="#3a414a" stroke-width="2" fill="#fff"/><path d="M1889.12-501.66a6 6 0 0 1 6-6h150a6 6 0 0 1 6 6v160a6 6 0 0 1-6 6h-150a6 6 0 0 1-6-6z" stroke="#6db1ff" stroke-width="2" fill="#edf5ff"/><path d="M1889.12-464.77h162m-162 64.38h162" stroke="#6db1ff" stroke-width="2" fill="none"/><use xlink:href="#a" transform="matrix(1,0,0,1,1897.1161301204938,-499.6617562784472) translate(34.04058159722222 21.58376736111111)"/><use xlink:href="#b" transform="matrix(1,0,0,1,1901.1161301204938,-456.7737354451139) translate(0 32.583767361111114)"/><path d="M1889.12 1202.98a6 6 0 0 1 6-6h150a6 6 0 0 1 6 6v192a6 6 0 0 1-6 6h-150a6 6 0 0 1-6-6z" stroke="#6db1ff" stroke-width="2" fill="#edf5ff"/><path d="M1889.12 1272.14h162m-162 64.4h162" stroke="#6db1ff" stroke-width="2" fill="none"/><use xlink:href="#c" transform="matrix(1,0,0,1,1897.1161301204938,1204.9852688353417) translate(40.914496527777786 21.95095486111111)"/><use xlink:href="#d" transform="matrix(1,0,0,1,1897.1161301204938,1204.9852688353417) translate(22.631076388888893 54.21657986111111)"/><use xlink:href="#e" transform="matrix(1,0,0,1,1901.1161301204938,1280.138914668675) translate(0 32.583767361111114)"/><path d="M1889.12 1692.98a6 6 0 0 1 6-6h150a6 6 0 0 1 6 6v192a6 6 0 0 1-6 6h-150a6 6 0 0 1-6-6z" stroke="#6db1ff" stroke-width="2" fill="#edf5ff"/><path d="M1889.12 1729.87h162m-162 96.66h162" stroke="#6db1ff" stroke-width="2" fill="none"/><use xlink:href="#f" transform="matrix(1,0,0,1,1897.1161301204938,1694.9852688353417) translate(11.205295138888879 21.58376736111111)"/><use xlink:href="#g" transform="matrix(1,0,0,1,1901.1161301204938,1737.873289668675) translate(0 32.450954861111114)"/><use xlink:href="#h" transform="matrix(1,0,0,1,1901.1161301204938,1737.873289668675) translate(0 64.71657986111111)"/><path d="M1427.12-533.66a6 6 0 0 1 6-6h150a6 6 0 0 1 6 6v224a6 6 0 0 1-6 6h-150a6 6 0 0 1-6-6z" stroke="#6db1ff" stroke-width="2" fill="#edf5ff"/><path d="M1427.12-464.5h162m-162 96.65h162" stroke="#6db1ff" stroke-width="2" fill="none"/><use xlink:href="#i" transform="matrix(1,0,0,1,1435.1161301204938,-531.6617562784472) translate(11.937717013888879 21.95095486111111)"/><use xlink:href="#j" transform="matrix(1,0,0,1,1435.1161301204938,-531.6617562784472) translate(27.150390625000007 54.21657986111111)"/><use xlink:href="#k" transform="matrix(1,0,0,1,1439.1161301204938,-456.50811044511386) translate(0 32.450954861111114)"/><use xlink:href="#l" transform="matrix(1,0,0,1,1439.1161301204938,-456.50811044511386) translate(0 64.71657986111111)"/><path d="M1971.1 1194.98h-1.96v-42.74h1.95zm0-68.55h-1.96v-1419.4h1.95zm0-1440.9h-1.96v-19.2h1.95z" stroke="#5e5e5e" stroke-width=".05" fill="#5e5e5e"/><path d="M1971.1-333.64h-1.96v-1.02h1.95z" fill="#5e5e5e"/><path stroke="#5e5e5e" stroke-width=".05" fill="#5e5e5e"/><path d="M1971.1 1195.98h-1.96v-1.02h1.95z" fill="#5e5e5e"/><path stroke="#5e5e5e" stroke-width=".05" fill="#5e5e5e"/><use xlink:href="#m" transform="matrix(1,0,0,1,1966.283664842716,-314.47690002717815) translate(0 17.22222222222222)"/><use xlink:href="#n" transform="matrix(1,0,0,1,1954.2880051204938,1126.427980795615) translate(0 20.666666666666668)"/><path d="M1971.1 1684.98h-1.96v-18.57h1.95zm0-44.38h-1.96v-182.92h1.95zm0-204.43h-1.96v-33.2h1.95z" stroke="#5e5e5e" stroke-width=".05" fill="#5e5e5e"/><path d="M1971.1 1403h-1.96V1402h1.95z" fill="#5e5e5e"/><path stroke="#5e5e5e" stroke-width=".05" fill="#5e5e5e"/><path d="M1971.1 1685.98h-1.96v-1.02h1.95z" fill="#5e5e5e"/><path stroke="#5e5e5e" stroke-width=".05" fill="#5e5e5e"/><use xlink:href="#m" transform="matrix(1,0,0,1,1966.283664842716,1436.165703714012) translate(0 17.22222222222222)"/><use xlink:href="#n" transform="matrix(1,0,0,1,1954.2880051204938,1640.602731544776) translate(0 20.666666666666668)"/><path d="M-235.56-613.66a6 6 0 0 1 6-6h2354.68a6 6 0 0 1 6 6v2578.64a6 6 0 0 1-6 6H-229.56a6 6 0 0 1-6-6z" stroke="#3a414a" stroke-width="2" fill="#fff"/><path d="M1889.12-501.66a6 6 0 0 1 6-6h150a6 6 0 0 1 6 6v160a6 6 0 0 1-6 6h-150a6 6 0 0 1-6-6z" stroke="#6db1ff" stroke-width="2" fill="#edf5ff"/><path d="M1889.12-464.77h162m-162 64.38h162" stroke="#6db1ff" stroke-width="2" fill="none"/><use xlink:href="#a" transform="matrix(1,0,0,1,1897.1161301204938,-499.6617562784472) translate(34.04058159722222 21.58376736111111)"/><use xlink:href="#b" transform="matrix(1,0,0,1,1901.1161301204938,-456.7737354451139) translate(0 32.583767361111114)"/><path d="M1889.12 1202.98a6 6 0 0 1 6-6h150a6 6 0 0 1 6 6v192a6 6 0 0 1-6 6h-150a6 6 0 0 1-6-6z" stroke="#6db1ff" stroke-width="2" fill="#edf5ff"/><path d="M1889.12 1272.14h162m-162 64.4h162" stroke="#6db1ff" stroke-width="2" fill="none"/><use xlink:href="#c" transform="matrix(1,0,0,1,1897.1161301204938,1204.9852688353417) translate(40.914496527777786 21.95095486111111)"/><use xlink:href="#d" transform="matrix(1,0,0,1,1897.1161301204938,1204.9852688353417) translate(22.631076388888893 54.21657986111111)"/><use xlink:href="#e" transform="matrix(1,0,0,1,1901.1161301204938,1280.138914668675) translate(0 32.583767361111114)"/><path d="M1889.12 1692.98a6 6 0 0 1 6-6h150a6 6 0 0 1 6 6v192a6 6 0 0 1-6 6h-150a6 6 0 0 1-6-6z" stroke="#6db1ff" stroke-width="2" fill="#edf5ff"/><path d="M1889.12 1729.87h162m-162 96.66h162" stroke="#6db1ff" stroke-width="2" fill="none"/><use xlink:href="#f" transform="matrix(1,0,0,1,1897.1161301204938,1694.9852688353417) translate(11.205295138888879 21.58376736111111)"/><use xlink:href="#g" transform="matrix(1,0,0,1,1901.1161301204938,1737.873289668675) translate(0 32.450954861111114)"/><use xlink:href="#h" transform="matrix(1,0,0,1,1901.1161301204938,1737.873289668675) translate(0 64.71657986111111)"/><path d="M1427.12-533.66a6 6 0 0 1 6-6h150a6 6 0 0 1 6 6v224a6 6 0 0 1-6 6h-150a6 6 0 0 1-6-6z" stroke="#6db1ff" stroke-width="2" fill="#edf5ff"/><path d="M1427.12-464.5h162m-162 96.65h162" stroke="#6db1ff" stroke-width="2" fill="none"/><use xlink:href="#i" transform="matrix(1,0,0,1,1435.1161301204938,-531.6617562784472) translate(11.937717013888879 21.95095486111111)"/><use xlink:href="#j" transform="matrix(1,0,0,1,1435.1161301204938,-531.6617562784472) translate(27.150390625000007 54.21657986111111)"/><use xlink:href="#k" transform="matrix(1,0,0,1,1439.1161301204938,-456.50811044511386) translate(0 32.450954861111114)"/><use xlink:href="#l" transform="matrix(1,0,0,1,1439.1161301204938,-456.50811044511386) translate(0 64.71657986111111)"/><path d="M1971.1 1194.98h-1.96v-42.74h1.95zm0-68.55h-1.96v-1419.4h1.95zm0-1440.9h-1.96v-19.2h1.95z" stroke="#5e5e5e" stroke-width=".05" fill="#5e5e5e"/><path d="M1971.1-333.64h-1.96v-1.02h1.95z" fill="#5e5e5e"/><path stroke="#5e5e5e" stroke-width=".05" fill="#5e5e5e"/><path d="M1971.1 1195.98h-1.96v-1.02h1.95z" fill="#5e5e5e"/><path stroke="#5e5e5e" stroke-width=".05" fill="#5e5e5e"/><use xlink:href="#m" transform="matrix(1,0,0,1,1966.283664842716,-314.47690002717815) translate(0 17.22222222222222)"/><use xlink:href="#n" transform="matrix(1,0,0,1,1954.2880051204938,1126.427980795615) translate(0 20.666666666666668)"/><path d="M1971.1 1684.98h-1.96v-18.57h1.95zm0-44.38h-1.96v-182.92h1.95zm0-204.43h-1.96v-33.2h1.95z" stroke="#5e5e5e" stroke-width=".05" fill="#5e5e5e"/><path d="M1971.1 1403h-1.96V1402h1.95z" fill="#5e5e5e"/><path stroke="#5e5e5e" stroke-width=".05" fill="#5e5e5e"/><path d="M1971.1 1685.98h-1.96v-1.02h1.95z" fill="#5e5e5e"/><path stroke="#5e5e5e" stroke-width=".05" fill="#5e5e5e"/><g><use xlink:href="#m" transform="matrix(1,0,0,1,1966.283664842716,1436.165703714012) translate(0 17.22222222222222)"/></g><g><use xlink:href="#n" transform="matrix(1,0,0,1,1954.2880051204938,1640.602731544776) translate(0 20.666666666666668)"/></g><defs><path d="M784 20c-382 0-662-292-662-764 0-473 280-766 662-766s660 293 660 766c0 472-278 764-660 764zm0-176c266 0 475-207 475-588 0-383-209-590-475-590-268 0-477 208-477 590 0 380 209 588 477 588" id="o"/><path d="M993-1535l88 111c-103 99-256 94-455 101-229 8-342 151-365 447h14c74-139 216-204 371-204 263 0 463 187 463 537S910 24 609 24c-303 0-505-216-505-630v-116c0-497 169-758 515-768 139-7 304 19 374-45zM610-137c197 0 317-159 317-406 0-239-120-377-321-377-195 0-319 138-319 377 0 245 122 406 323 406" id="p"/><path d="M338-717h293c264 0 409 149 409 355C1040-160 894 0 631 0H158v-1118h180v401zm0 167v384h293c132 0 227-77 227-188 0-116-95-196-227-196H338" id="q"/><path d="M628 24c-324 0-524-230-524-574 0-343 198-582 503-582 237 0 487 146 487 559v75H286c9 234 145 362 343 362 132 0 231-58 273-172l174 48C1024-91 857 24 628 24zM287-650h624c-17-190-120-322-304-322-192 0-309 151-320 322" id="r"/><path d="M158 0v-1118h180v484h112l398-484h228L630-577 1082 0H854L493-468H338V0H158" id="s"/><path d="M388 0v-957H20v-161h914v161H568V0H388" id="t"/><g id="a"><use transform="matrix(0.010850694444444444,0,0,0.010850694444444444,0,0)" xlink:href="#o"/><use transform="matrix(0.010850694444444444,0,0,0.010850694444444444,16.9921875,0)" xlink:href="#p"/><use transform="matrix(0.010850694444444444,0,0,0.010850694444444444,30.15407986111111,0)" xlink:href="#q"/><use transform="matrix(0.010850694444444444,0,0,0.010850694444444444,42.56727430555556,0)" xlink:href="#r"/><use transform="matrix(0.010850694444444444,0,0,0.010850694444444444,55.52300347222222,0)" xlink:href="#s"/><use transform="matrix(0.010850694444444444,0,0,0.010850694444444444,67.56727430555556,0)" xlink:href="#t"/></g><path d="M370-1490V0H180v-1490h190" id="u"/><path d="M645 0H180v-1490h484c435 0 692 280 692 742 0 466-257 748-711 748zM370-168h263c363 0 539-218 539-580 0-358-176-574-521-574H370v1154" id="v"/><g id="b"><use transform="matrix(0.010850694444444444,0,0,0.010850694444444444,0,0)" xlink:href="#u"/><use transform="matrix(0.010850694444444444,0,0,0.010850694444444444,5.967881944444445,0)" xlink:href="#v"/></g><path d="M98-1322v-168h1126v168H757V0H567v-1322H98" id="w"/><path d="M613 24c-304 0-509-231-509-576 0-350 205-580 509-580 305 0 511 230 511 580 0 345-206 576-511 576zm0-161c226 0 329-195 329-415 0-222-103-419-329-419-223 0-326 196-326 419 0 220 103 415 326 415" id="x"/><path d="M583-350c-259 0-425-137-425-410v-358h180v358c0 168 105 244 245 244 99 0 181-14 262-36v-566h180V0H845v-385c-79 22-162 35-262 35" id="y"/><path d="M1053 0H872v-806h-13L329 0H158v-1118h180v809h13l532-809h170V0" id="z"/><g id="c"><use transform="matrix(0.010850694444444444,0,0,0.010850694444444444,0,0)" xlink:href="#w"/><use transform="matrix(0.010850694444444444,0,0,0.010850694444444444,12.608506944444445,0)" xlink:href="#x"/><use transform="matrix(0.010850694444444444,0,0,0.010850694444444444,26.15017361111111,0)" xlink:href="#y"/><use transform="matrix(0.010850694444444444,0,0,0.010850694444444444,38.986545138888886,0)" xlink:href="#s"/><use transform="matrix(0.010850694444444444,0,0,0.010850694444444444,51.03081597222221,0)" xlink:href="#z"/></g><path d="M338-1118v477h534v-477h181V0H872v-475H338V0H158v-1118h180" id="A"/><path d="M158 418v-1536h174v179h20c37-59 106-193 324-193 279 0 474 222 474 576 0 356-194 580-473 580-213 0-288-135-325-197h-14v591H158zm492-555c209 0 317-186 317-421 0-232-105-413-317-413-206 0-314 166-314 413 0 249 111 421 314 421" id="B"/><path d="M20 0v-166h40c130 0 171-81 186-454l20-498h754V0H839v-952H437l-17 394C398-160 328 21 20 0" id="C"/><path d="M977 0H798v-419H508L254 0H47l277-449C171-500 96-614 96-764c0-208 141-354 436-354h445V0zM798-570v-391H546c-192 0-270 73-270 197 0 123 78 194 268 194h254" id="D"/><g id="d"><use transform="matrix(0.010850694444444444,0,0,0.010850694444444444,0,0)" xlink:href="#s"/><use transform="matrix(0.010850694444444444,0,0,0.010850694444444444,11.54513888888889,0)" xlink:href="#x"/><use transform="matrix(0.010850694444444444,0,0,0.010850694444444444,24.869791666666664,0)" xlink:href="#A"/><use transform="matrix(0.010850694444444444,0,0,0.010850694444444444,38.009982638888886,0)" xlink:href="#t"/><use transform="matrix(0.010850694444444444,0,0,0.010850694444444444,48.70876736111111,0)" xlink:href="#B"/><use transform="matrix(0.010850694444444444,0,0,0.010850694444444444,62.31553819444444,0)" xlink:href="#x"/><use transform="matrix(0.010850694444444444,0,0,0.010850694444444444,75.64019097222221,0)" xlink:href="#C"/><use transform="matrix(0.010850694444444444,0,0,0.010850694444444444,88.42230902777777,0)" xlink:href="#D"/></g><path d="M180 0v-1490h270l367 940c28 72 75 218 110 339 35-117 81-264 110-339l362-940h271V0h-187c2-448-5-837 7-1287-157 497-311 829-483 1287H842C666-458 514-784 354-1284c12 438 5 843 7 1284H180" id="E"/><path d="M471 26C259 26 90-98 90-318c0-256 228-303 435-329 202-27 287-16 287-108 0-139-79-219-234-219-161 0-248 86-283 164l-173-57c86-203 278-265 451-265 150 0 419 46 419 395V0H815v-152h-12C765-73 660 26 471 26zm31-159c199 0 310-134 310-271v-155c-30 35-226 55-295 64-131 17-246 59-246 186 0 116 97 176 231 176" id="F"/><g id="e"><use transform="matrix(0.010850694444444444,0,0,0.010850694444444444,0,0)" xlink:href="#E"/><use transform="matrix(0.010850694444444444,0,0,0.010850694444444444,20.07378472222222,0)" xlink:href="#r"/><use transform="matrix(0.010850694444444444,0,0,0.010850694444444444,33.029513888888886,0)" xlink:href="#t"/><use transform="matrix(0.010850694444444444,0,0,0.010850694444444444,43.72829861111111,0)" xlink:href="#s"/><use transform="matrix(0.010850694444444444,0,0,0.010850694444444444,55.77256944444444,0)" xlink:href="#F"/></g><path d="M1363 0h-191c4-468-12-788 15-1262C918-774 685-451 406 0H180v-1490h190c-6 443 14 830-13 1265 68-135 136-249 176-312l606-953h224V0" id="G"/><path d="M504 13C281 13 99-100 94-275h184c5 76 107 135 226 135 133 0 226-77 226-180 0-109-97-184-251-184h-73v-134h73c126 0 221-70 221-175 0-100-77-170-191-170-112 0-213 61-216 153H119c4-179 180-300 392-300 224 0 365 139 365 309 0 133-94 218-214 241v8c171 27 258 126 258 264 0 186-174 321-416 321" id="H"/><path d="M158 0v-1118h270c115 298 279 624 361 942 79-316 244-646 356-942h274V0h-181c1-327-2-645 4-968-88 330-255 658-376 968H708C586-305 423-627 332-951c8 309 4 634 5 951H158" id="I"/><g id="f"><use transform="matrix(0.010850694444444444,0,0,0.010850694444444444,0,0)" xlink:href="#G"/><use transform="matrix(0.010850694444444444,0,0,0.010850694444444444,16.74262152777778,0)" xlink:href="#H"/><use transform="matrix(0.010850694444444444,0,0,0.010850694444444444,27.72352430555556,0)" xlink:href="#I"/><use transform="matrix(0.010850694444444444,0,0,0.010850694444444444,44.83506944444444,0)" xlink:href="#r"/><use transform="matrix(0.010850694444444444,0,0,0.010850694444444444,57.79079861111111,0)" xlink:href="#B"/><use transform="matrix(0.010850694444444444,0,0,0.010850694444444444,71.39756944444444,0)" xlink:href="#r"/><use transform="matrix(0.010850694444444444,0,0,0.010850694444444444,84.35329861111111,0)" xlink:href="#A"/><use transform="matrix(0.010850694444444444,0,0,0.010850694444444444,97.49348958333334,0)" xlink:href="#z"/><use transform="matrix(0.010850694444444444,0,0,0.010850694444444444,110.63368055555557,0)" xlink:href="#r"/></g><path d="M180 0v-1490h528c311 0 458 177 458 395 0 191-114 278-244 313v14c139 9 302 137 302 371 0 225-148 397-499 397H180zm190-168h350c232 0 321-102 321-231 0-149-120-277-311-277H370v508zm0-668h328c160 0 286-101 286-255 0-129-87-231-280-231H370v486" id="J"/><g id="g"><use transform="matrix(0.010850694444444444,0,0,0.010850694444444444,0,0)" xlink:href="#J"/><use transform="matrix(0.010850694444444444,0,0,0.010850694444444444,14.539930555555555,0)" xlink:href="#B"/><use transform="matrix(0.010850694444444444,0,0,0.010850694444444444,28.14670138888889,0)" xlink:href="#r"/><use transform="matrix(0.010850694444444444,0,0,0.010850694444444444,41.10243055555555,0)" xlink:href="#I"/><use transform="matrix(0.010850694444444444,0,0,0.010850694444444444,58.21397569444444,0)" xlink:href="#D"/></g><path d="M635 20c-292 0-500-160-510-396h192c11 142 145 229 315 229 187 0 323-105 323-260 0-161-125-274-346-274H488v-165h121c174 0 294-100 294-254 0-148-104-245-266-245-152 0-291 85-297 230H157c8-234 222-395 484-395 278 0 448 188 448 400 0 168-95 291-247 336v12c190 31 301 169 301 357 0 244-216 425-508 425" id="K"/><g id="h"><use transform="matrix(0.010850694444444444,0,0,0.010850694444444444,0,0)" xlink:href="#K"/><use transform="matrix(0.010850694444444444,0,0,0.010850694444444444,13.726128472222221,0)" xlink:href="#A"/><use transform="matrix(0.010850694444444444,0,0,0.010850694444444444,26.866319444444443,0)" xlink:href="#F"/><use transform="matrix(0.010850694444444444,0,0,0.010850694444444444,39.34461805555556,0)" xlink:href="#y"/><use transform="matrix(0.010850694444444444,0,0,0.010850694444444444,52.18098958333333,0)" xlink:href="#r"/><use transform="matrix(0.010850694444444444,0,0,0.010850694444444444,65.13671875,0)" xlink:href="#A"/><use transform="matrix(0.010850694444444444,0,0,0.010850694444444444,78.27690972222223,0)" xlink:href="#z"/><use transform="matrix(0.010850694444444444,0,0,0.010850694444444444,91.41710069444446,0)" xlink:href="#r"/></g><path d="M98 0v-167c185 6 228-39 255-364l79-959h920V0h-190v-1323H605l-66 808C507-137 420 16 98 0" id="L"/><path d="M338-717h293c264 0 409 149 409 355C1040-160 894 0 631 0H158v-1118h180v401zM1170 0v-1118h180V0h-180zM338-550v384h293c132 0 227-77 227-188 0-116-95-196-227-196H338" id="M"/><g id="i"><use transform="matrix(0.010850694444444444,0,0,0.010850694444444444,0,0)" xlink:href="#L"/><use transform="matrix(0.010850694444444444,0,0,0.010850694444444444,16.62326388888889,0)" xlink:href="#x"/><use transform="matrix(0.010850694444444444,0,0,0.010850694444444444,29.947916666666664,0)" xlink:href="#s"/><use transform="matrix(0.010850694444444444,0,0,0.010850694444444444,41.9921875,0)" xlink:href="#F"/><use transform="matrix(0.010850694444444444,0,0,0.010850694444444444,54.47048611111112,0)" xlink:href="#C"/><use transform="matrix(0.010850694444444444,0,0,0.010850694444444444,67.25260416666667,0)" xlink:href="#q"/><use transform="matrix(0.010850694444444444,0,0,0.010850694444444444,79.66579861111111,0)" xlink:href="#A"/><use transform="matrix(0.010850694444444444,0,0,0.010850694444444444,92.80598958333334,0)" xlink:href="#M"/><use transform="matrix(0.010850694444444444,0,0,0.010850694444444444,109.16883680555557,0)" xlink:href="#r"/></g><path d="M613 24c-304 0-509-231-509-576 0-350 205-580 509-580 216 0 392 114 453 309l-173 49c-33-115-133-197-280-197-223 0-326 196-326 419 0 220 103 415 326 415 150 0 252-85 285-206l172 49C1010-95 832 24 613 24" id="N"/><g id="j"><use transform="matrix(0.010850694444444444,0,0,0.010850694444444444,0,0)" xlink:href="#N"/><use transform="matrix(0.010850694444444444,0,0,0.010850694444444444,12.6953125,0)" xlink:href="#x"/><use transform="matrix(0.010850694444444444,0,0,0.010850694444444444,26.01996527777778,0)" xlink:href="#p"/><use transform="matrix(0.010850694444444444,0,0,0.010850694444444444,39.181857638888886,0)" xlink:href="#M"/><use transform="matrix(0.010850694444444444,0,0,0.010850694444444444,55.54470486111111,0)" xlink:href="#t"/><use transform="matrix(0.010850694444444444,0,0,0.010850694444444444,66.24348958333333,0)" xlink:href="#z"/><use transform="matrix(0.010850694444444444,0,0,0.010850694444444444,79.38368055555554,0)" xlink:href="#D"/></g><path d="M1046-1118V0H866v-952H339V0H158v-1118h888" id="O"/><g id="k"><use transform="matrix(0.010850694444444444,0,0,0.010850694444444444,0,0)" xlink:href="#w"/><use transform="matrix(0.010850694444444444,0,0,0.010850694444444444,13.0859375,0)" xlink:href="#z"/><use transform="matrix(0.010850694444444444,0,0,0.010850694444444444,26.22612847222222,0)" xlink:href="#O"/></g><g id="l"><use transform="matrix(0.010850694444444444,0,0,0.010850694444444444,0,0)" xlink:href="#J"/><use transform="matrix(0.010850694444444444,0,0,0.010850694444444444,14.539930555555555,0)" xlink:href="#B"/><use transform="matrix(0.010850694444444444,0,0,0.010850694444444444,28.14670138888889,0)" xlink:href="#r"/><use transform="matrix(0.010850694444444444,0,0,0.010850694444444444,41.10243055555555,0)" xlink:href="#I"/><use transform="matrix(0.010850694444444444,0,0,0.010850694444444444,58.21397569444444,0)" xlink:href="#D"/></g><path fill="#333" d="M749-1490V0H444v-1221h-10L93-980v-279l329-231h327" id="P"/><use transform="matrix(0.008680555555555556,0,0,0.008680555555555556,0,0)" xlink:href="#P" id="m"/><path d="M653-1490V0H466v-1314h-10L96-1047v-204l324-239h233" id="Q"/><path d="M295 13c-75 0-135-60-135-135s60-135 135-135 135 60 135 135S370 13 295 13" id="R"/><path d="M441-652l13-317-268 171-72-126 282-146-282-146 72-128 268 171-13-317h144l-12 317 267-171 72 128-282 146 282 146-72 126-267-171 12 317H441" id="S"/><g id="n"><use transform="matrix(0.010416666666666668,0,0,0.010416666666666668,0,0)" xlink:href="#Q"/><use transform="matrix(0.010416666666666668,0,0,0.010416666666666668,8.677083333333334,0)" xlink:href="#R"/><use transform="matrix(0.010416666666666668,0,0,0.010416666666666668,14.822916666666668,0)" xlink:href="#R"/><use transform="matrix(0.010416666666666668,0,0,0.010416666666666668,20.96875,0)" xlink:href="#S"/></g></defs></g></svg>